<svg id="Calque_1" data-name="Calque 1" xmlns="http://www.w3.org/2000/svg" viewBox="0 0 1920 616"><defs><style>.cls-1{fill:#fff;}</style></defs><path class="cls-1" d="M1888.21,118c-42.72-30.61-96.62-48.87-155.21-48.87a269.8,269.8,0,0,0-118.55,27c-45.81-44.6-111-72.5-183.45-72.5-69.11,0-131.69,25.41-177.08,66.5a273,273,0,0,0-252.21,3.37C956.06,50.44,892,23.64,821,23.64c-68,0-129.74,24.63-175,64.61-39.2-23-85.91-36.41-136-36.41A268.93,268.93,0,0,0,382.18,83.63C336.15,32.58,266.26,0,188,0,113.16,0,46,29.8,0,77V616H1920V77.05A230.06,230.06,0,0,0,1888.21,118Z"/></svg>