<?xml version="1.0" encoding="utf-8"?>
<!-- Generator: Adobe Illustrator 25.0.1, SVG Export Plug-In . SVG Version: 6.00 Build 0)  -->
<svg version="1.1" id="Calque_1" xmlns="http://www.w3.org/2000/svg" xmlns:xlink="http://www.w3.org/1999/xlink" x="0px" y="0px"
	 viewBox="0 0 1920 616" style="enable-background:new 0 0 1920 616;" xml:space="preserve">
<style type="text/css">
	.st0{fill:#FFFFFF;}
</style>
<path class="st0" d="M1888.2,118c-42.7-30.6-96.6-48.9-155.2-48.9c-41.1-0.1-81.6,9.1-118.6,27c-45.8-44.6-111-72.5-183.4-72.5
	c-69.1,0-131.7,25.4-177.1,66.5c-79.6-40.1-173.7-38.9-252.2,3.4C956.1,50.4,892,23.6,821,23.6c-68,0-129.7,24.6-175,64.6
	c-39.2-23-85.9-36.4-136-36.4c-44.6-0.2-88.5,10.8-127.8,31.8C336.1,32.6,266.3,0,188,0C113.2,0,46,29.8,0,77v539h1920V77
	C1907.9,89.5,1897.2,103.2,1888.2,118z"/>
</svg>
