<?xml version="1.0" encoding="utf-8"?>
<!-- Generator: Adobe Illustrator 25.0.1, SVG Export Plug-In . SVG Version: 6.00 Build 0)  -->
<svg version="1.1" id="Calque_1" xmlns="http://www.w3.org/2000/svg" xmlns:xlink="http://www.w3.org/1999/xlink" x="0px" y="0px"
	 viewBox="0 0 1920 390" style="enable-background:new 0 0 1920 390;" xml:space="preserve">
<path d="M1537.8,92c-81.8-48.4-183.9-46.5-263.8,5c-99.4-96.6-258.2-94.4-354.8,5c-0.3,0.3-0.5,0.6-0.8,0.8
	C841,56.4,744.8,55,666.1,99.1C567.9,1.3,409,1.6,311.2,99.8c-1.9,1.9-3.8,3.9-5.6,5.8c-87.9-47.1-195.4-37.6-273.8,24
	c-8.9-16.1-19.6-31.2-31.8-45V390h1920V84.7C1828.1-19.1,1669.5-28.8,1565.7,63C1555.6,71.9,1546.3,81.6,1537.8,92z"/>
</svg>
